<svg width="24" height="24" viewBox="0 0 24 24" fill="none" xmlns="http://www.w3.org/2000/svg">
<path d="M12.3999 13.9203L9.22925 17.0997C9.02853 17.299 8.77345 17.3986 8.46403 17.3986C8.15461 17.3986 7.89954 17.299 7.69882 17.0997C7.49954 16.9004 7.3999 16.6468 7.3999 16.3388C7.3999 16.0309 7.49954 15.7772 7.69882 15.578L10.8782 12.3986L7.69882 9.25513C7.49954 9.0544 7.3999 8.79933 7.3999 8.48991C7.3999 8.18049 7.49954 7.92542 7.69882 7.72469C7.89809 7.52542 8.15171 7.42578 8.45968 7.42578C8.76766 7.42578 9.02128 7.52542 9.22055 7.72469L12.3999 10.904L15.5434 7.72469C15.7441 7.52542 15.9992 7.42578 16.3086 7.42578C16.618 7.42578 16.8731 7.52542 17.0738 7.72469C17.2912 7.94209 17.3999 8.20042 17.3999 8.49969C17.3999 8.79897 17.2912 9.04788 17.0738 9.24643L13.8945 12.3986L17.0738 15.5693C17.2731 15.77 17.3727 16.0251 17.3727 16.3345C17.3727 16.6439 17.2731 16.899 17.0738 17.0997C16.8564 17.3171 16.5985 17.4258 16.2999 17.4258C16.0014 17.4258 15.7521 17.3171 15.5521 17.0997L12.3999 13.9203Z" fill="black"/>
</svg>
